<svg xmlns="http://www.w3.org/2000/svg" width="64" height="64"><path fill="#0078d7" fill-rule="evenodd" d="M0 0h64v64H0z"/><g fill="#fff" aria-label=":("><path d="M17.09 18.94q0-2.432 1.152-3.392t2.752-.96 2.816.96 1.216 3.392q0 2.304-1.216 3.328t-2.816 1.024-2.752-1.024-1.152-3.328zm0 27.39q0-2.368 1.152-3.328t2.752-.96 2.816.96 1.216 3.328q0 2.304-1.216 3.328t-2.816 1.024-2.752-1.024-1.152-3.328zM32.19 32.26q0-7.808 2.24-15.04 2.304-7.296 7.168-13.12h5.312q-4.48 6.016-6.784 13.25-2.24 7.232-2.24 14.85 0 7.424 2.24 14.59 2.304 7.104 6.72 13.12h-5.248q-4.864-5.632-7.168-12.74-2.24-7.168-2.24-14.91z"/></g></svg>